<svg width="64" height="48" viewBox="0 0 64 48" fill="none" xmlns="http://www.w3.org/2000/svg">
<path d="M23.0312 29.0938C23.0312 31.5729 22.5625 33.9062 21.625 36.0938C20.6875 38.2604 19.4062 40.1562 17.7812 41.7812C16.1771 43.3854 14.2812 44.6562 12.0938 45.5938C9.92708 46.5312 7.60417 47 5.125 47C3.625 47 2.125 46.8125 0.625 46.4375V36.8125C1.29167 37.2083 2.01042 37.5104 2.78125 37.7188C3.55208 37.9271 4.33333 38.0312 5.125 38.0312C6.35417 38.0312 7.51042 37.8021 8.59375 37.3438C9.69792 36.8646 10.6562 36.2188 11.4688 35.4062C12.2812 34.5938 12.9167 33.6458 13.375 32.5625C13.8542 31.4792 14.0938 30.3229 14.0938 29.0938V2.1875H23.0312V29.0938Z" fill="#00BBF0"/>
<path d="M63.4375 29.9688C63.4375 32.5938 62.9896 34.9896 62.0938 37.1562C61.1979 39.3229 59.9792 41.1875 58.4375 42.75C56.8958 44.2917 55.0833 45.4896 53 46.3438C50.9375 47.1979 48.7188 47.625 46.3438 47.625C43.9896 47.625 41.7708 47.1875 39.6875 46.3125C37.625 45.4375 35.8125 44.2188 34.25 42.6562C32.7083 41.0938 31.4896 39.2396 30.5938 37.0938C29.6979 34.9271 29.25 32.5521 29.25 29.9688V0.21875H37.8125V15.8438C38.2708 15.2604 38.8229 14.7396 39.4688 14.2812C40.1354 13.8229 40.8438 13.4479 41.5938 13.1562C42.3646 12.8646 43.1562 12.6458 43.9688 12.5C44.7812 12.3333 45.5729 12.25 46.3438 12.25C48.7188 12.25 50.9375 12.6979 53 13.5938C55.0833 14.4688 56.8958 15.6979 58.4375 17.2812C59.9792 18.8646 61.1979 20.7396 62.0938 22.9062C62.9896 25.0521 63.4375 27.4062 63.4375 29.9688ZM54.8438 29.9688C54.8438 28.6771 54.6146 27.4792 54.1562 26.375C53.7188 25.25 53.1146 24.2812 52.3438 23.4688C51.5729 22.6562 50.6667 22.0208 49.625 21.5625C48.6042 21.1042 47.5104 20.875 46.3438 20.875C45.1771 20.875 44.0729 21.1354 43.0312 21.6562C42.0104 22.1562 41.1146 22.8333 40.3438 23.6875C39.5729 24.5208 38.9688 25.4896 38.5312 26.5938C38.0938 27.6771 37.875 28.8021 37.875 29.9688C37.875 31.2604 38.0938 32.4583 38.5312 33.5625C38.9688 34.6667 39.5729 35.625 40.3438 36.4375C41.1146 37.25 42.0104 37.8958 43.0312 38.375C44.0729 38.8333 45.1771 39.0625 46.3438 39.0625C47.5104 39.0625 48.6042 38.8333 49.625 38.375C50.6667 37.8958 51.5729 37.25 52.3438 36.4375C53.1146 35.625 53.7188 34.6667 54.1562 33.5625C54.6146 32.4583 54.8438 31.2604 54.8438 29.9688Z" fill="#00204A"/>
</svg>
