<svg width="100" height="100" viewBox="0 0 100 100" fill="none" xmlns="http://www.w3.org/2000/svg">
<path d="M41.0312 55.0938C41.0312 57.5729 40.5625 59.9062 39.625 62.0938C38.6875 64.2604 37.4062 66.1562 35.7812 67.7812C34.1771 69.3854 32.2812 70.6562 30.0938 71.5938C27.9271 72.5312 25.6042 73 23.125 73C21.625 73 20.125 72.8125 18.625 72.4375V62.8125C19.2917 63.2083 20.0104 63.5104 20.7812 63.7188C21.5521 63.9271 22.3333 64.0312 23.125 64.0312C24.3542 64.0312 25.5104 63.8021 26.5938 63.3438C27.6979 62.8646 28.6562 62.2188 29.4688 61.4062C30.2812 60.5938 30.9167 59.6458 31.375 58.5625C31.8542 57.4792 32.0938 56.3229 32.0938 55.0938V28.1875H41.0312V55.0938Z" fill="#00BBF0"/>
<path d="M81.4375 55.9688C81.4375 58.5938 80.9896 60.9896 80.0938 63.1562C79.1979 65.3229 77.9792 67.1875 76.4375 68.75C74.8958 70.2917 73.0833 71.4896 71 72.3438C68.9375 73.1979 66.7188 73.625 64.3438 73.625C61.9896 73.625 59.7708 73.1875 57.6875 72.3125C55.625 71.4375 53.8125 70.2188 52.25 68.6562C50.7083 67.0938 49.4896 65.2396 48.5938 63.0938C47.6979 60.9271 47.25 58.5521 47.25 55.9688V26.2188H55.8125V41.8438C56.2708 41.2604 56.8229 40.7396 57.4688 40.2812C58.1354 39.8229 58.8438 39.4479 59.5938 39.1562C60.3646 38.8646 61.1562 38.6458 61.9688 38.5C62.7812 38.3333 63.5729 38.25 64.3438 38.25C66.7188 38.25 68.9375 38.6979 71 39.5938C73.0833 40.4688 74.8958 41.6979 76.4375 43.2812C77.9792 44.8646 79.1979 46.7396 80.0938 48.9062C80.9896 51.0521 81.4375 53.4062 81.4375 55.9688ZM72.8438 55.9688C72.8438 54.6771 72.6146 53.4792 72.1562 52.375C71.7188 51.25 71.1146 50.2812 70.3438 49.4688C69.5729 48.6562 68.6667 48.0208 67.625 47.5625C66.6042 47.1042 65.5104 46.875 64.3438 46.875C63.1771 46.875 62.0729 47.1354 61.0312 47.6562C60.0104 48.1562 59.1146 48.8333 58.3438 49.6875C57.5729 50.5208 56.9688 51.4896 56.5312 52.5938C56.0938 53.6771 55.875 54.8021 55.875 55.9688C55.875 57.2604 56.0938 58.4583 56.5312 59.5625C56.9688 60.6667 57.5729 61.625 58.3438 62.4375C59.1146 63.25 60.0104 63.8958 61.0312 64.375C62.0729 64.8333 63.1771 65.0625 64.3438 65.0625C65.5104 65.0625 66.6042 64.8333 67.625 64.375C68.6667 63.8958 69.5729 63.25 70.3438 62.4375C71.1146 61.625 71.7188 60.6667 72.1562 59.5625C72.6146 58.4583 72.8438 57.2604 72.8438 55.9688Z" fill="#00204A"/>
</svg>
