<svg width="243" height="62" viewBox="0 0 243 62" fill="none" xmlns="http://www.w3.org/2000/svg">
<path d="M23.0312 31.0938C23.0312 33.5729 22.5625 35.9062 21.625 38.0938C20.6875 40.2604 19.4062 42.1562 17.7812 43.7812C16.1771 45.3854 14.2812 46.6562 12.0938 47.5938C9.92708 48.5312 7.60417 49 5.125 49C3.625 49 2.125 48.8125 0.625 48.4375V38.8125C1.29167 39.2083 2.01042 39.5104 2.78125 39.7188C3.55208 39.9271 4.33333 40.0312 5.125 40.0312C6.35417 40.0312 7.51042 39.8021 8.59375 39.3438C9.69792 38.8646 10.6562 38.2188 11.4688 37.4062C12.2812 36.5938 12.9167 35.6458 13.375 34.5625C13.8542 33.4792 14.0938 32.3229 14.0938 31.0938V4.1875H23.0312V31.0938ZM61.7812 31.9688C61.7812 34.4688 61.3333 36.8021 60.4375 38.9688C59.5417 41.1146 58.3229 42.9792 56.7812 44.5625C55.2396 46.125 53.4271 47.3646 51.3438 48.2812C49.2812 49.1771 47.0625 49.625 44.6875 49.625C42.3333 49.625 40.1146 49.1771 38.0312 48.2812C35.9688 47.3646 34.1562 46.125 32.5938 44.5625C31.0521 42.9792 29.8333 41.1146 28.9375 38.9688C28.0417 36.8021 27.5938 34.4688 27.5938 31.9688C27.5938 29.4271 28.0417 27.0729 28.9375 24.9062C29.8333 22.7396 31.0521 20.875 32.5938 19.3125C34.1562 17.7292 35.9688 16.4896 38.0312 15.5938C40.1146 14.6979 42.3333 14.25 44.6875 14.25C47.0625 14.25 49.2812 14.6771 51.3438 15.5312C53.4271 16.3646 55.2396 17.5625 56.7812 19.125C58.3229 20.6667 59.5417 22.5312 60.4375 24.7188C61.3333 26.8854 61.7812 29.3021 61.7812 31.9688ZM53.1875 31.9688C53.1875 30.5938 52.9583 29.3542 52.5 28.25C52.0625 27.125 51.4583 26.1667 50.6875 25.375C49.9167 24.5625 49.0104 23.9479 47.9688 23.5312C46.9479 23.0938 45.8542 22.875 44.6875 22.875C43.5208 22.875 42.4167 23.0938 41.375 23.5312C40.3542 23.9479 39.4583 24.5625 38.6875 25.375C37.9375 26.1667 37.3438 27.125 36.9062 28.25C36.4688 29.3542 36.25 30.5938 36.25 31.9688C36.25 33.2604 36.4688 34.4583 36.9062 35.5625C37.3438 36.6667 37.9375 37.625 38.6875 38.4375C39.4583 39.25 40.3542 39.8958 41.375 40.375C42.4167 40.8333 43.5208 41.0625 44.6875 41.0625C45.8542 41.0625 46.9479 40.8438 47.9688 40.4062C49.0104 39.9688 49.9167 39.3542 50.6875 38.5625C51.4583 37.7708 52.0625 36.8125 52.5 35.6875C52.9583 34.5625 53.1875 33.3229 53.1875 31.9688Z" fill="#00BBF0"/>
<path d="M100 31.9688C100 34.5938 99.5521 36.9896 98.6562 39.1562C97.7604 41.3229 96.5417 43.1875 95 44.75C93.4583 46.2917 91.6458 47.4896 89.5625 48.3438C87.5 49.1979 85.2812 49.625 82.9062 49.625C80.5521 49.625 78.3333 49.1875 76.25 48.3125C74.1875 47.4375 72.375 46.2188 70.8125 44.6562C69.2708 43.0938 68.0521 41.2396 67.1562 39.0938C66.2604 36.9271 65.8125 34.5521 65.8125 31.9688V2.21875H74.375V17.8438C74.8333 17.2604 75.3854 16.7396 76.0312 16.2812C76.6979 15.8229 77.4062 15.4479 78.1562 15.1562C78.9271 14.8646 79.7188 14.6458 80.5312 14.5C81.3438 14.3333 82.1354 14.25 82.9062 14.25C85.2812 14.25 87.5 14.6979 89.5625 15.5938C91.6458 16.4688 93.4583 17.6979 95 19.2812C96.5417 20.8646 97.7604 22.7396 98.6562 24.9062C99.5521 27.0521 100 29.4062 100 31.9688ZM91.4062 31.9688C91.4062 30.6771 91.1771 29.4792 90.7188 28.375C90.2812 27.25 89.6771 26.2812 88.9062 25.4688C88.1354 24.6562 87.2292 24.0208 86.1875 23.5625C85.1667 23.1042 84.0729 22.875 82.9062 22.875C81.7396 22.875 80.6354 23.1354 79.5938 23.6562C78.5729 24.1562 77.6771 24.8333 76.9062 25.6875C76.1354 26.5208 75.5312 27.4896 75.0938 28.5938C74.6562 29.6771 74.4375 30.8021 74.4375 31.9688C74.4375 33.2604 74.6562 34.4583 75.0938 35.5625C75.5312 36.6667 76.1354 37.625 76.9062 38.4375C77.6771 39.25 78.5729 39.8958 79.5938 40.375C80.6354 40.8333 81.7396 41.0625 82.9062 41.0625C84.0729 41.0625 85.1667 40.8333 86.1875 40.375C87.2292 39.8958 88.1354 39.25 88.9062 38.4375C89.6771 37.625 90.2812 36.6667 90.7188 35.5625C91.1771 34.4583 91.4062 33.2604 91.4062 31.9688ZM114.812 6.4375C114.812 7.22917 114.656 7.96875 114.344 8.65625C114.052 9.34375 113.646 9.94792 113.125 10.4688C112.604 10.9688 111.99 11.375 111.281 11.6875C110.594 11.9792 109.854 12.125 109.062 12.125C108.271 12.125 107.521 11.9792 106.812 11.6875C106.125 11.375 105.521 10.9688 105 10.4688C104.5 9.94792 104.094 9.34375 103.781 8.65625C103.49 7.96875 103.344 7.22917 103.344 6.4375C103.344 5.66667 103.49 4.9375 103.781 4.25C104.094 3.54167 104.5 2.9375 105 2.4375C105.521 1.91667 106.125 1.51042 106.812 1.21875C107.521 0.90625 108.271 0.75 109.062 0.75C109.854 0.75 110.594 0.90625 111.281 1.21875C111.99 1.51042 112.604 1.91667 113.125 2.4375C113.646 2.9375 114.052 3.54167 114.344 4.25C114.656 4.9375 114.812 5.66667 114.812 6.4375ZM113.344 49H104.75V15.5312H113.344V49ZM128.406 49H119.875V15.5312H121.938L124.75 18.7812C126.125 17.5312 127.677 16.5729 129.406 15.9062C131.156 15.2188 132.979 14.875 134.875 14.875C136.917 14.875 138.844 15.2708 140.656 16.0625C142.469 16.8333 144.052 17.9062 145.406 19.2812C146.76 20.6354 147.823 22.2292 148.594 24.0625C149.385 25.875 149.781 27.8125 149.781 29.875V49H141.25V29.875C141.25 29 141.083 28.1771 140.75 27.4062C140.417 26.6146 139.958 25.9271 139.375 25.3438C138.792 24.7604 138.115 24.3021 137.344 23.9688C136.573 23.6354 135.75 23.4688 134.875 23.4688C133.979 23.4688 133.135 23.6354 132.344 23.9688C131.552 24.3021 130.865 24.7604 130.281 25.3438C129.698 25.9271 129.24 26.6146 128.906 27.4062C128.573 28.1771 128.406 29 128.406 29.875V49ZM179.688 31.9688C179.688 30.8021 179.458 29.6771 179 28.5938C178.562 27.4896 177.958 26.5208 177.188 25.6875C176.417 24.8333 175.51 24.1562 174.469 23.6562C173.448 23.1354 172.354 22.875 171.188 22.875C170.021 22.875 168.917 23.0729 167.875 23.4688C166.854 23.8646 165.958 24.4479 165.188 25.2188C164.438 25.9896 163.844 26.9479 163.406 28.0938C162.969 29.2188 162.75 30.5104 162.75 31.9688C162.75 33.3646 162.969 34.625 163.406 35.75C163.844 36.8542 164.438 37.8021 165.188 38.5938C165.958 39.3854 166.854 40 167.875 40.4375C168.917 40.8542 170.021 41.0625 171.188 41.0625C172.354 41.0625 173.448 40.8125 174.469 40.3125C175.51 39.7917 176.417 39.1146 177.188 38.2812C177.958 37.4271 178.562 36.4583 179 35.375C179.458 34.2708 179.688 33.1354 179.688 31.9688ZM188.281 44.7812C188.281 47.1354 187.833 49.3438 186.938 51.4062C186.042 53.4688 184.812 55.2708 183.25 56.8125C181.708 58.3542 179.896 59.5729 177.812 60.4688C175.75 61.3646 173.542 61.8125 171.188 61.8125L166.906 61.75V53.2188L171.125 53.2812C172.458 53.2812 173.594 53.1042 174.531 52.75C175.469 52.4167 176.26 51.9479 176.906 51.3438C177.552 50.7604 178.062 50.0833 178.438 49.3125C178.833 48.5417 179.146 47.7292 179.375 46.875C179.042 47.4167 178.562 47.8646 177.938 48.2188C177.312 48.5521 176.615 48.8229 175.844 49.0312C175.094 49.2604 174.302 49.4167 173.469 49.5C172.656 49.5833 171.896 49.625 171.188 49.625C168.833 49.625 166.615 49.2188 164.531 48.4062C162.469 47.5938 160.656 46.4375 159.094 44.9375C157.552 43.4167 156.333 41.5625 155.438 39.375C154.542 37.1875 154.094 34.7188 154.094 31.9688C154.094 29.4479 154.542 27.1042 155.438 24.9375C156.333 22.7708 157.552 20.8958 159.094 19.3125C160.656 17.7292 162.469 16.4896 164.531 15.5938C166.615 14.6979 168.833 14.25 171.188 14.25C172.271 14.25 173.344 14.3854 174.406 14.6562C175.469 14.9271 176.5 15.3021 177.5 15.7812C178.5 16.2604 179.448 16.8229 180.344 17.4688C181.26 18.1146 182.115 18.8125 182.906 19.5625L186.219 15.5938H188.281V44.7812ZM227.156 31.9688C227.156 34.4688 226.708 36.8021 225.812 38.9688C224.917 41.1146 223.698 42.9792 222.156 44.5625C220.615 46.125 218.802 47.3646 216.719 48.2812C214.656 49.1771 212.438 49.625 210.062 49.625C207.708 49.625 205.49 49.1771 203.406 48.2812C201.344 47.3646 199.531 46.125 197.969 44.5625C196.427 42.9792 195.208 41.1146 194.312 38.9688C193.417 36.8021 192.969 34.4688 192.969 31.9688C192.969 29.4271 193.417 27.0729 194.312 24.9062C195.208 22.7396 196.427 20.875 197.969 19.3125C199.531 17.7292 201.344 16.4896 203.406 15.5938C205.49 14.6979 207.708 14.25 210.062 14.25C212.438 14.25 214.656 14.6771 216.719 15.5312C218.802 16.3646 220.615 17.5625 222.156 19.125C223.698 20.6667 224.917 22.5312 225.812 24.7188C226.708 26.8854 227.156 29.3021 227.156 31.9688ZM218.562 31.9688C218.562 30.5938 218.333 29.3542 217.875 28.25C217.438 27.125 216.833 26.1667 216.062 25.375C215.292 24.5625 214.385 23.9479 213.344 23.5312C212.323 23.0938 211.229 22.875 210.062 22.875C208.896 22.875 207.792 23.0938 206.75 23.5312C205.729 23.9479 204.833 24.5625 204.062 25.375C203.312 26.1667 202.719 27.125 202.281 28.25C201.844 29.3542 201.625 30.5938 201.625 31.9688C201.625 33.2604 201.844 34.4583 202.281 35.5625C202.719 36.6667 203.312 37.625 204.062 38.4375C204.833 39.25 205.729 39.8958 206.75 40.375C207.792 40.8333 208.896 41.0625 210.062 41.0625C211.229 41.0625 212.323 40.8438 213.344 40.4062C214.385 39.9688 215.292 39.3542 216.062 38.5625C216.833 37.7708 217.438 36.8125 217.875 35.6875C218.333 34.5625 218.562 33.3229 218.562 31.9688ZM240.906 37.9375H233.938L232.031 4.1875H242.844L240.906 37.9375ZM242.781 45.8125C242.781 46.5625 242.635 47.2708 242.344 47.9375C242.073 48.5833 241.698 49.1458 241.219 49.625C240.74 50.1042 240.177 50.4792 239.531 50.75C238.885 51.0417 238.198 51.1875 237.469 51.1875C236.719 51.1875 236.021 51.0417 235.375 50.75C234.729 50.4792 234.156 50.1042 233.656 49.625C233.177 49.1458 232.792 48.5833 232.5 47.9375C232.229 47.2708 232.094 46.5625 232.094 45.8125C232.094 45.0833 232.229 44.3958 232.5 43.75C232.792 43.1042 233.177 42.5417 233.656 42.0625C234.156 41.5833 234.729 41.2083 235.375 40.9375C236.021 40.6458 236.719 40.5 237.469 40.5C238.198 40.5 238.885 40.6458 239.531 40.9375C240.177 41.2083 240.74 41.5833 241.219 42.0625C241.698 42.5417 242.073 43.1042 242.344 43.75C242.635 44.3958 242.781 45.0833 242.781 45.8125Z" fill="#00204A"/>
</svg>
